<?xml version="1.0" encoding="UTF-8" standalone="no"?>
<svg
   xmlns:dc="http://purl.org/dc/elements/1.1/"
   xmlns:cc="http://creativecommons.org/ns#"
   xmlns:rdf="http://www.w3.org/1999/02/22-rdf-syntax-ns#"
   xmlns:svg="http://www.w3.org/2000/svg"
   xmlns="http://www.w3.org/2000/svg"
   version="1.1"
   id="svg2"
   viewBox="0 0 1000 1000.0001"
   height="1000"
   width="1000">
  <defs
     id="defs4" />
  <metadata
     id="metadata7">
    <rdf:RDF>
      <cc:Work
         rdf:about="">
        <dc:format>image/svg+xml</dc:format>
        <dc:type
           rdf:resource="http://purl.org/dc/dcmitype/StillImage" />
        <dc:title></dc:title>
      </cc:Work>
    </rdf:RDF>
  </metadata>
  <g
     transform="translate(-69.285217,245.13885)"
     style="display:inline;opacity:1"
     id="layer2">
    <path
       id="path4365"
       d="m 512.84972,-191.26239 c -6.80754,0.13386 -13.44284,1.7244 -19.82655,5.01498 -54.73103,28.2119 -65.39191,112.198503 -66.52392,164.13308 -4.41196,-8.595505 -13.04893,-20.248286 -22.38428,-30.592377 -7.74907,-8.5864 -45.47463,-36.52476 -73.29596,15.508517 -9.37614,17.53589 -20.10148,37.44099425 -20.65966,83.484812 -0.11516,9.500769 0.11263,18.928518 0.62243,28.274549 C 233.59,76.299793 144.89831,84.574022 119.28516,112.08445 176.19175,99.043354 231.66392,96.409539 288.22892,96.079922 c 7.43861,-0.04331 15.67965,0.168499 24.31311,0.541353 6.31036,60.086395 24.42493,116.048855 46.76224,163.737585 -0.5996,0.86682 -133.04639,192.5237 -71.32173,268.52071 45.20361,31.41632 107.60036,19.8771 181.1457,-21.12972 -0.26797,0.31755 -22.48495,26.73306 -18.57196,53.67689 5.36151,32.69848 20.91831,38.15073 61.86553,36.89439 23.71363,-3.09767 50.22348,-13.71891 71.31524,-24.64703 8.48154,-4.39451 17.13757,-9.46289 25.87563,-15.06769 34.52671,56.25136 92.06028,144.50458 127.9389,146.25485 -46.27675,-52.63349 -82.59665,-110.3628 -109.02328,-159.16674 41.62532,-30.18333 83.90485,-72.15038 118.34653,-119.42607 0.75059,0.0597 139.28603,11.03573 218.95756,-24.43957 10.4079,-4.63439 95.57781,-42.26796 27.2469,-123.23193 -22.7961,-27.01057 -52.72771,-50.72531 -86.57747,-71.46114 44.21727,-3.14879 77.76247,-13.08697 71.71717,-48.22104 0,0 3.8871,-10.25107 -20.7472,-41.49441 C 941.40103,97.03791 915.14574,76.137157 882.11413,58.316751 888.38969,46.228667 894.63433,33.656148 900.56618,20.796734 908.61511,3.3477892 961.56969,-106.7372 943.24703,-122.65398 928.14804,-70.366647 892.60621,-6.2218038 859.26631,46.973871 848.81818,42.236431 837.86744,37.824106 826.46951,33.838295 798.309,23.990728 750.06513,12.522677 697.01675,7.1878522 691.63163,-3.0744248 591.01357,-192.79949 512.84972,-191.26239 Z m 41.4166,103.593383 c 9.67463,-0.1672 20.31977,4.34118 32.54066,13.76771 23.26782,17.99812 47.15079,48.45716 67.10097,78.2882852 -60.42871,-1.668897 -121.77672,6.7468018 -163.31608,35.8764798 1.3321,-29.091942 5.8818,-55.549391 14.69159,-77.516759 15.58318,-32.733446 30.51309,-50.096486 48.98286,-50.415716 z m -156.08699,75.795385 c 2.42823,-0.0056 4.56527,0.570224 6.23389,1.549545 15.48666,9.0893562 21.44442,23.375608 22.95158,27.674845 0.14977,2.028703 0.27229,3.465419 0.27229,3.465419 1.74961,18.119205 3.67013,36.577219 6.01023,55.534428 -5.808,-0.322821 -33.33781,-1.774986 -72.75783,-2.113604 0.9577,-67.7419998 23.68681,-86.081121 37.28984,-86.110633 z m 219.22004,45.222409 c 51.49172,0.405214 95.25557,11.751357 95.25557,11.751357 0,0 64.89097,15.049177 120.57037,42.013094 -15.06293,22.522852 -27.96957,40.747062 -36.23303,52.146812 -18.31482,-28.60898 -47.1617,-54.062236 -88.99572,-74.498695 0,0 43.95274,22.190315 70.49505,82.090865 C 663.75962,104.72159 546.64927,85.956778 509.92566,83.03835 l -1.77648,38.08735 c 0,0 165.50182,24.46553 288.57405,96.47773 0.82482,8.07758 1.33026,16.52206 1.44581,25.36669 0.93242,71.37278 -97.48003,203.07169 -189.92436,263.295 -13.34393,-27.35787 -22.49421,-49.11279 -27.61648,-61.95311 36.23211,1.20201 74.86771,-8.01821 108.90981,-37.17315 -27.27791,14.30198 -66.06044,25.60275 -107.78814,22.37457 C 692.08838,338.38401 775.19476,227.08555 775.19476,227.08555 L 744.36897,205.7451 C 637.1421,321.16118 559.64146,379.70369 511.63081,409.05799 484.4986,394.51733 458.0867,371.43338 434.64253,336.74748 419.8231,312.44361 378.06413,241.07275 364.6953,134.61138 c -1.57363,-12.53136 -2.62054,-24.04641 -3.22555,-34.63164 26.24561,2.31943 49.60771,4.99811 64.04402,6.74933 -41.13732,63.16992 -21.10055,113.24083 -21.10055,113.24083 3.65645,-31.19547 6.53354,-47.30987 24.30338,-87.13824 0,0 2.72336,-7.22005 10.24069,-17.98526 11.6999,76.16708 32.47316,161.94637 77.88301,268.5661 6.70651,0 34.86501,-17.21046 34.86501,-17.21046 C 524.10918,286.70989 491.904,166.03256 490.24502,67.176469 500.0496,60.92973 511.26797,54.843389 524.1537,49.249582 552.8293,36.801266 586.50435,33.10567 617.39937,33.348787 Z M 858.81245,100.8939 c 17.50576,10.56219 32.55209,22.46108 42.05196,35.60742 39.85005,55.14602 -23.66393,51.56379 -28.81591,51.19047 -16.73789,-8.72083 -34.09119,-16.81994 -51.75775,-24.32286 2.44978,-3.63765 18.49344,-27.66467 38.5217,-62.47503 z m -36.09041,133.11928 c 5.06067,3.45258 10.02341,6.99049 14.84722,10.63294 123.23203,93.0528 39.40347,124.90789 39.40347,124.90789 -33.64786,16.24707 -69.71533,17.4759 -105.65186,19.98538 30.42295,-50.34055 50.5392,-104.45034 51.40117,-155.52621 z m -444.44383,63.26598 c 35.85032,63.89865 76.45974,106.93746 96.67547,115.34475 4.72933,2.83949 10.01324,5.70232 15.72248,8.49339 -25.06606,13.4385 -37.65617,16.40325 -37.65617,16.40325 0,0 -49.79282,21.33952 -94.84385,3.55619 -44.43707,-17.54093 18.3746,-140.43662 20.10207,-143.79758 z m 170.61976,158.07426 c 2.37008,4.21046 19.13222,33.9316 37.02727,64.07969 -22.85359,12.02291 -44.79062,18.84622 -64.12504,18.35155 -53.16135,-1.36015 -24.17256,-45.81206 -22.77331,-47.91308 13.61999,-8.66543 27.55787,-18.1796 41.80238,-28.53064 2.70731,-1.96732 5.38441,-3.98266 8.0687,-5.98752 z"
       style="fill:#000000;fill-opacity:1;fill-rule:evenodd;stroke:none;stroke-width:1px;stroke-linecap:butt;stroke-linejoin:miter;stroke-opacity:1" />
  </g>
</svg>
